<svg width="28" height="28" xmlns="http://www.w3.org/2000/svg" fill="none">
    <defs>
        <clipPath id="clip0_57_91">
            <rect id="svg_1" fill="white" height="39" width="34" />
        </clipPath>
    </defs>
    <g>
        <title>Layer 1</title>
        <g stroke="null" id="svg_2" clip-path="url(#clip0_57_91)">
            <path stroke="null" id="svg_3" fill="currentColor" fill-opacity="0.6"
                d="m14.33335,9.2815c-2.17249,0 -3.93982,2.52645 -3.93982,5.63193c0,3.10548 1.76741,5.63192 3.93982,5.63192c2.17241,0 3.93982,-2.52655 3.93982,-5.63192c0,-3.10538 -1.76733,-5.63193 -3.93982,-5.63193zm0,8.76083c-1.20708,0 -2.18884,-1.40377 -2.18884,-3.1288c0,-1.72543 0.98176,-3.1288 2.18884,-3.1288c1.20708,0 2.18884,1.40337 2.18884,3.1288c0,1.72544 -0.98176,3.1288 -2.18884,3.1288z" />
            <path stroke="null" id="svg_4" fill="currentColor" fill-opacity="0.6"
                d="m14.33335,18.00065c-3.23448,0 -5.86604,3.76168 -5.86604,8.38532l0,1.87724c0,0.69129 0.39194,1.25166 0.87554,1.25166c0.4836,0 0.87557,-0.56027 0.87557,-1.25166l0,-1.87724c0,-3.2437 1.84586,-5.8823 4.11502,-5.8823c2.26908,0 4.11493,2.63911 4.11493,5.8823l0,1.87724c0,0.69129 0.39197,1.25166 0.87557,1.25166c0.4836,0 0.87557,-0.56027 0.87557,-1.25166l0,-1.87724c-0.00008,-4.62364 -2.63167,-8.38532 -5.86616,-8.38532z" />
            <path stroke="null" id="svg_5" fill="currentColor" fill-opacity="0.6"
                d="m22.30063,5.48526c-2.17249,0 -3.93982,2.52643 -3.93982,5.6319c0,3.10538 1.76741,5.63193 3.93982,5.63193c2.17281,0 3.9399,-2.52655 3.9399,-5.63193c0,-3.10548 -1.76741,-5.6319 -3.9399,-5.6319zm0,8.76071c-1.207,0 -2.18876,-1.40337 -2.18876,-3.1288c0,-1.72543 0.98176,-3.1288 2.18876,-3.1288c1.20708,0 2.18884,1.40337 2.18884,3.1288c0,1.72544 -0.98176,3.1288 -2.18884,3.1288z" />
            <path stroke="null" id="svg_6" fill="currentColor" fill-opacity="0.6"
                d="m22.30063,14.20428c-2.68286,0 -5.02403,2.59946 -5.69234,6.3219c-0.12019,0.66919 0.16193,1.35125 0.63007,1.52313c0.46838,0.17361 0.94522,-0.23111 1.06557,-0.9007c0.46985,-2.61528 2.11349,-4.44121 3.99678,-4.44121c2.26908,0 4.11502,2.63911 4.11502,5.8822l0,1.87734c0,0.69129 0.39189,1.25156 0.87557,1.25156c0.48352,0 0.87549,-0.56017 0.87549,-1.25156l0,-1.87734c-0.00008,-4.62364 -2.63159,-8.38532 -5.86615,-8.38532z" />
            <path stroke="null" id="svg_7" fill="currentColor" fill-opacity="0.6"
                d="m6.36604,5.48526c-2.17248,0 -3.93985,2.52643 -3.93985,5.6319c0,3.10538 1.76742,5.63193 3.93985,5.63193c2.17249,0 3.93985,-2.52655 3.93985,-5.63193c0,-3.10548 -1.76736,-5.6319 -3.93985,-5.6319zm0,8.76071c-1.20707,0 -2.1888,-1.40337 -2.1888,-3.1288c0,-1.72543 0.98174,-3.1288 2.1888,-3.1288c1.20707,0 2.18881,1.40337 2.18881,3.1288c0,1.72544 -0.98174,3.1288 -2.18881,3.1288z" />
            <path stroke="null" id="svg_8" fill="currentColor" fill-opacity="0.6"
                d="m12.02953,20.4845c-0.66416,-3.6979 -2.99313,-6.28022 -5.66349,-6.28022c-3.23451,0 -5.86604,3.76168 -5.86604,8.38532l0,1.87724c0,0.69129 0.39192,1.25166 0.87555,1.25166c0.48357,0 0.87555,-0.56027 0.87555,-1.25166l0,-1.87724c0,-3.24319 1.84589,-5.8823 4.11499,-5.8823c1.87069,0 3.50209,1.80889 3.9673,4.39953c0.12027,0.66918 0.59565,1.07136 1.06582,0.9012c0.46838,-0.17188 0.75058,-0.85435 0.63031,-1.52353z" />
        </g>
    </g>
</svg>