<svg width="27" height="26" viewBox="0 0 27 26" fill="none" xmlns="http://www.w3.org/2000/svg">
    <path
        d="M23.2953 17.5614L20.6446 21.2288L18.774 19.7504C18.5722 19.5903 18.2733 19.6191 18.1075 19.8134C17.9413 20.0081 17.9706 20.296 18.1734 20.4552L20.4404 22.2473C20.5252 22.3148 20.6318 22.3509 20.7407 22.3509C20.7621 22.3509 20.7838 22.3495 20.8056 22.3463C20.9364 22.329 21.0538 22.2597 21.1296 22.1552L24.0731 18.0823C24.2223 17.8757 24.1697 17.5915 23.9547 17.4474C23.7396 17.3028 23.445 17.3543 23.2953 17.5614Z"
        fill="currentColor" fill-opacity="0.6" />
    <path
        d="M25.5789 16.2865V5.55396C25.5789 2.49144 22.9917 0 19.8114 0H5.76758C2.58726 0 0 2.49144 0 5.55396V19.0776C0 22.1401 2.58726 24.6316 5.76758 24.6316H16.9129C17.9801 25.4855 19.3495 26 20.8421 26C24.2375 26 27 23.3398 27 20.0702C27 18.6329 26.4657 17.3142 25.5789 16.2865ZM5.76758 23.7193C3.10974 23.7193 0.947368 21.6375 0.947368 19.0776V5.55396C0.947368 2.99411 3.10974 0.912281 5.76758 0.912281H19.8114C22.4692 0.912281 24.6316 2.99411 24.6316 5.55396V15.4029C24.5961 15.376 24.5582 15.3532 24.5222 15.3272C24.4227 15.2552 24.3232 15.1835 24.219 15.1174C24.2081 15.1106 24.1963 15.1046 24.1854 15.0978C23.9419 14.9454 23.6856 14.8113 23.4199 14.6927C23.3839 14.6768 23.3488 14.6585 23.3128 14.643C23.2086 14.5988 23.1021 14.5609 22.995 14.5221C22.9273 14.4975 22.8595 14.4724 22.7908 14.4501C22.6928 14.4186 22.5938 14.3908 22.4938 14.3639C22.4091 14.3411 22.3238 14.3196 22.2381 14.3005C22.1476 14.2804 22.0576 14.2608 21.9657 14.2444C21.8567 14.2247 21.7468 14.2097 21.6365 14.196C21.5626 14.1869 21.4892 14.1755 21.4143 14.1686C21.2248 14.1508 21.0339 14.1404 20.8421 14.1404C17.9365 14.1404 15.5004 16.0908 14.8562 18.7018H12.7895C12.528 18.7018 12.3158 18.9056 12.3158 19.1579C12.3158 19.4101 12.528 19.614 12.7895 19.614H14.7084C14.6961 19.765 14.6842 19.9165 14.6842 20.0702C14.6842 20.2549 14.6956 20.4387 14.7131 20.6212C14.7202 20.6937 14.7316 20.7644 14.7415 20.836C14.7557 20.9414 14.7714 21.0468 14.7917 21.1508C14.8088 21.2397 14.8292 21.3278 14.8505 21.4153C14.8704 21.497 14.8922 21.5777 14.9154 21.6585C14.9438 21.7561 14.9727 21.8528 15.0063 21.9481C15.0286 22.0124 15.0542 22.0754 15.0788 22.1388C15.1195 22.2437 15.1598 22.3481 15.2062 22.4503C15.2199 22.4804 15.2365 22.5096 15.2507 22.5397C15.3772 22.8043 15.5212 23.0597 15.6856 23.3015C15.6898 23.3079 15.6936 23.3147 15.6979 23.3206C15.7671 23.4214 15.8419 23.5177 15.9167 23.6144C15.9437 23.6491 15.9674 23.6851 15.9949 23.7193H5.76758ZM20.8421 25.0877C19.5058 25.0877 18.2889 24.5965 17.3657 23.7968C17.2511 23.6979 17.1417 23.5948 17.0375 23.4871C17.0143 23.4634 16.992 23.4392 16.9693 23.4151C16.8703 23.3088 16.7765 23.1993 16.6874 23.0862C16.6671 23.0602 16.6462 23.0342 16.6263 23.0077C16.5387 22.8909 16.4563 22.771 16.3795 22.6478C16.3639 22.6232 16.3478 22.599 16.3326 22.5735C16.2549 22.4444 16.1844 22.3121 16.119 22.1771C16.1086 22.1556 16.0972 22.1351 16.0873 22.1132C16.0214 21.9723 15.9636 21.8281 15.912 21.6817C15.9058 21.6635 15.8978 21.6461 15.8916 21.6284C15.8409 21.4796 15.7988 21.3278 15.7623 21.1745C15.7581 21.1567 15.7519 21.1394 15.7481 21.1211C15.714 20.9701 15.6898 20.8169 15.6709 20.6627C15.6681 20.6413 15.6633 20.6203 15.6609 20.5984C15.6415 20.4241 15.6316 20.2481 15.6316 20.0702C15.6316 17.3037 17.9692 15.0526 20.8421 15.0526C21.0268 15.0526 21.2102 15.0622 21.3921 15.0814C21.4134 15.0836 21.4337 15.0882 21.4551 15.0909C21.6161 15.1096 21.7767 15.1334 21.9344 15.1662C21.9524 15.1699 21.9695 15.1758 21.9875 15.1794C22.1476 15.2146 22.3058 15.2552 22.4612 15.3044C22.4787 15.3099 22.4957 15.3167 22.5133 15.3227C22.6667 15.3728 22.8178 15.4294 22.9656 15.4933C22.9865 15.5024 23.0068 15.5129 23.0277 15.522C23.1693 15.5854 23.3081 15.6543 23.4436 15.7295C23.4682 15.7432 23.4924 15.7583 23.5165 15.7724C23.6458 15.8477 23.7718 15.9271 23.8945 16.0128C23.9206 16.0311 23.9462 16.0498 23.9717 16.0685C24.0911 16.1551 24.2067 16.2468 24.3185 16.3435C24.3422 16.364 24.3658 16.3841 24.3886 16.4051C24.5018 16.5068 24.6107 16.614 24.7154 16.7262C25.5439 17.6143 26.0526 18.7848 26.0526 20.0702C26.0526 22.8367 23.715 25.0877 20.8421 25.0877Z"
        fill="currentColor" fill-opacity="0.6" />
    <path
        d="M12.7895 6.38596H21.3158C21.5773 6.38596 21.7895 6.18206 21.7895 5.92982C21.7895 5.67757 21.5773 5.47368 21.3158 5.47368H12.7895C12.528 5.47368 12.3158 5.67757 12.3158 5.92982C12.3158 6.18206 12.528 6.38596 12.7895 6.38596Z"
        fill="currentColor" fill-opacity="0.6" />
    <path
        d="M12.7895 12.7719H21.3158C21.5773 12.7719 21.7895 12.568 21.7895 12.3158C21.7895 12.0635 21.5773 11.8596 21.3158 11.8596H12.7895C12.528 11.8596 12.3158 12.0635 12.3158 12.3158C12.3158 12.568 12.528 12.7719 12.7895 12.7719Z"
        fill="currentColor" fill-opacity="0.6" />
    <path
        d="M9.08005 3.35264L6.12047 6.67699L4.31053 5.36923C4.10116 5.21825 3.80416 5.25885 3.64737 5.46046C3.49011 5.66162 3.53274 5.94762 3.74211 6.0986L5.90732 7.66271C5.99258 7.72429 6.09205 7.75394 6.19153 7.75394C6.32558 7.75394 6.45821 7.69966 6.55153 7.59429L9.79958 3.94516C9.96963 3.75404 9.94689 3.46622 9.74842 3.30246C9.55042 3.13916 9.25058 3.16106 9.08005 3.35264Z"
        fill="currentColor" fill-opacity="0.6" />
    <path
        d="M9.08005 9.73859L6.12047 13.0629L4.31053 11.7552C4.10116 11.6042 3.80416 11.6448 3.64737 11.8464C3.49011 12.0476 3.53274 12.3336 3.74211 12.4846L5.90732 14.0487C5.99258 14.1102 6.09205 14.1399 6.19153 14.1399C6.32558 14.1399 6.45821 14.0856 6.55153 13.9802L9.79958 10.3311C9.96963 10.14 9.94689 9.85217 9.74842 9.68842C9.55042 9.52512 9.25058 9.54701 9.08005 9.73859Z"
        fill="currentColor" fill-opacity="0.6" />
    <path
        d="M9.08005 16.5807L6.12047 19.9046L4.31053 18.5973C4.10116 18.4468 3.80416 18.4869 3.64737 18.6885C3.49011 18.8897 3.53274 19.1757 3.74211 19.3267L5.90732 20.8908C5.99258 20.9523 6.09205 20.982 6.19153 20.982C6.32558 20.982 6.45821 20.9277 6.55153 20.8223L9.79958 17.1737C9.96963 16.9826 9.94689 16.6947 9.74842 16.531C9.55042 16.3672 9.25058 16.3891 9.08005 16.5807Z"
        fill="currentColor" fill-opacity="0.6" />
</svg>