<svg width="28" height="28" viewBox="0 0 28 28" fill="none" xmlns="http://www.w3.org/2000/svg">
<path d="M14.4654 0.87982L21.1257 7.07806L27.786 13.2763C28.0552 13.5364 28.0746 13.9597 27.8242 14.2386C27.6895 14.3829 27.5064 14.4502 27.3239 14.4502V14.4599H23.9556V26.6254C23.9556 27.0007 23.6475 27.3087 23.2722 27.3087H17.9689C17.5936 27.3087 17.2953 27.0007 17.2953 26.6254V17.2704H10.712V26.6254C10.712 27.0007 10.404 27.3087 10.0286 27.3087H4.72538C4.35004 27.3087 4.05171 27.0007 4.05171 26.6254V14.4599H0.673669C0.29833 14.4599 0 14.1525 0 13.7772C0 13.5655 0.0964116 13.3727 0.250428 13.2478L6.88161 7.07866L13.5413 0.870118C13.8014 0.629999 14.2053 0.629999 14.4654 0.87982ZM20.2016 8.06946L14.0033 2.29507L7.8051 8.07007L2.40605 13.0944H4.72538C5.10072 13.0944 5.40875 13.4024 5.40875 13.7778V25.9432H9.35496V16.5967C9.35496 16.2214 9.65329 15.9134 10.0286 15.9134H17.9689C18.3443 15.9134 18.6523 16.2214 18.6523 16.5967V25.942H22.5985V13.7772C22.5985 13.4018 22.8969 13.0938 23.2722 13.0938H25.6012L20.2016 8.06946Z" fill="currentColor" fill-opacity="0.6"/>
</svg>
