<svg width="28" height="28" viewBox="0 0 28 28" fill="none" xmlns="http://www.w3.org/2000/svg">
<path d="M23.8359 2.1875H22.5703V0H20.4609V2.1875H6.53906V0H4.42969V2.1875H3.16406C1.4194 2.1875 0 3.65947 0 5.46875V24.7188C0 26.528 1.4194 28 3.16406 28H23.8359C25.5806 28 27 26.528 27 24.7188V5.46875C27 3.65947 25.5806 2.1875 23.8359 2.1875ZM8.22656 25.8125H3.16406C2.58251 25.8125 2.10938 25.3218 2.10938 24.7188V19.25H8.22656V25.8125ZM8.22656 17.0625H2.10938V10.5H8.22656V17.0625ZM16.6641 25.8125H10.3359V19.25H16.6641V25.8125ZM16.6641 17.0625H10.3359V10.5H16.6641V17.0625ZM24.8906 24.7188C24.8906 25.3218 24.4175 25.8125 23.8359 25.8125H18.7734V19.25H24.8906V24.7188ZM24.8906 17.0625H18.7734V10.5H24.8906V17.0625ZM24.8906 8.3125H2.10938V5.46875C2.10938 4.86566 2.58251 4.375 3.16406 4.375H4.42969V6.5625H6.53906V4.375H20.4609V6.5625H22.5703V4.375H23.8359C24.4175 4.375 24.8906 4.86566 24.8906 5.46875V8.3125Z" fill="currentColor" fill-opacity="0.6"/>
</svg>
