<svg width="28" height="28" viewBox="0 0 23 25" fill="none" xmlns="http://www.w3.org/2000/svg">
    <path
        d="M19.56 0.899994H3.44C1.73128 0.899994 0.339996 2.20035 0.339996 3.79999V21.2C0.339996 22.7996 1.73128 24.1 3.44 24.1H19.56C21.2687 24.1 22.66 22.7996 22.66 21.2V3.79999C22.66 2.20035 21.2687 0.899994 19.56 0.899994ZM21.42 21.2C21.42 22.1593 20.5855 22.94 19.56 22.94H3.44C2.41452 22.94 1.58 22.1593 1.58 21.2V3.79999C1.58 2.84067 2.41452 2.05999 3.44 2.05999H19.56C20.5855 2.05999 21.42 2.84067 21.42 3.79999V21.2Z"
        fill="currentColor" fill-opacity="0.6" />
    <path
        d="M7.16 6.7H5.92C5.57776 6.7 5.3 6.95984 5.3 7.28C5.3 7.60016 5.57776 7.86 5.92 7.86H7.16C7.50224 7.86 7.78 7.60016 7.78 7.28C7.78 6.95984 7.50224 6.7 7.16 6.7Z"
        fill="currentColor" fill-opacity="0.6" />
    <path
        d="M17.08 6.7H9.63999C9.29775 6.7 9.01999 6.95984 9.01999 7.28C9.01999 7.60016 9.29775 7.86 9.63999 7.86H17.08C17.4222 7.86 17.7 7.60016 17.7 7.28C17.7 6.95984 17.4222 6.7 17.08 6.7Z"
        fill="currentColor" fill-opacity="0.6" />
    <path
        d="M7.16 11.34H5.92C5.57776 11.34 5.3 11.5998 5.3 11.92C5.3 12.2402 5.57776 12.5 5.92 12.5H7.16C7.50224 12.5 7.78 12.2402 7.78 11.92C7.78 11.5998 7.50224 11.34 7.16 11.34Z"
        fill="currentColor" fill-opacity="0.6" />
    <path
        d="M17.08 11.34H9.63999C9.29775 11.34 9.01999 11.5998 9.01999 11.92C9.01999 12.2402 9.29775 12.5 9.63999 12.5H17.08C17.4222 12.5 17.7 12.2402 17.7 11.92C17.7 11.5998 17.4222 11.34 17.08 11.34Z"
        fill="currentColor" fill-opacity="0.6" />
    <path
        d="M7.16 15.98H5.92C5.57776 15.98 5.3 16.2398 5.3 16.56C5.3 16.8802 5.57776 17.14 5.92 17.14H7.16C7.50224 17.14 7.78 16.8802 7.78 16.56C7.78 16.2398 7.50224 15.98 7.16 15.98Z"
        fill="currentColor" fill-opacity="0.6" />
    <path
        d="M17.08 15.98H9.63999C9.29775 15.98 9.01999 16.2398 9.01999 16.56C9.01999 16.8802 9.29775 17.14 9.63999 17.14H17.08C17.4222 17.14 17.7 16.8802 17.7 16.56C17.7 16.2398 17.4222 15.98 17.08 15.98Z"
        fill="currentColor" fill-opacity="0.6" />
</svg>