<svg width="28" height="28" xmlns="http://www.w3.org/2000/svg" fill="none">
    <g>
        <path stroke="null" id="svg_1" fill-opacity="0.5" fill="currentColor"
            d="m27.70067,12.29453l-13.01893,-12.02919c-0.3792,-0.35379 -0.98413,-0.35379 -1.36344,0l-13.01841,12.02872c-0.19165,0.17702 -0.29988,0.42097 -0.29988,0.67589c0,0.51883 0.43951,0.93937 0.9816,0.93937l1.73005,0l0,13.15128c0,0.51884 0.43945,0.9394 0.9816,0.9394l6.87117,0c0.54215,0 0.9816,-0.42056 0.9816,-0.9394l0,-7.51506l4.90797,0l0,7.51506c0,0.51884 0.43947,0.9394 0.9816,0.9394l6.8712,0c0.54213,0 0.9816,-0.42056 0.9816,-0.9394l0,-13.15128l1.73,0c0.26613,0 0.5208,-0.10339 0.70573,-0.28651c0.3768,-0.37306 0.36627,-0.96774 -0.02347,-1.32828zm-2.41226,0.67542c-0.54214,0 -0.9816,0.42055 -0.9816,0.93937l0,13.15128l-6.8712,0l0,-7.51506c0,-0.51884 -0.43947,-0.9394 -0.9816,-0.9394l-4.90797,0c-0.54215,0 -0.9816,0.42056 -0.9816,0.9394l0,7.51506l-6.87117,0l0,-13.15128c0,-0.51883 -0.43944,-0.93937 -0.9816,-0.93937l-1.73005,0l13.0184,-12.02873l13.02333,12.02873l-1.73493,0z" />
    </g>
</svg>